<svg width="800" height="800" viewBox="0 0 800 800" fill="none" xmlns="http://www.w3.org/2000/svg">
<rect width="800" height="800" fill="#16161D"/>
<path d="M201.69 460C198.44 460 195.94 457.5 195.94 454.25V440.75C195.94 437.5 193.44 435 190.19 435H176.19C172.94 435 170.44 432.5 170.44 429.25V365.75C170.44 362.5 172.94 360 176.19 360H190.19C193.44 360 195.94 357.5 195.94 354.25V340.75C195.94 337.5 198.44 335 201.69 335H266.69C269.94 335 272.44 337.5 272.44 340.75V354.25C272.44 357.5 274.94 360 278.19 360H292.19C295.44 360 297.94 362.5 297.94 365.75V429.25C297.94 432.5 295.44 435 292.19 435H278.19C274.94 435 272.44 437.5 272.44 440.75V454.25C272.44 457.5 269.94 460 266.69 460H201.69ZM195.94 429.25C195.94 432.5 198.44 435 201.69 435H266.69C269.94 435 272.44 432.5 272.44 429.25V365.75C272.44 362.5 269.94 360 266.69 360H201.69C198.44 360 195.94 362.5 195.94 365.75V429.25ZM323.517 460.25H476.517V485.25H323.517V460.25ZM533.233 460C529.983 460 527.483 457.5 527.483 454.25V440.75C527.483 437.5 524.983 435 521.733 435H507.733C504.483 435 501.983 432.5 501.983 429.25V365.75C501.983 362.5 504.483 360 507.733 360H521.733C524.983 360 527.483 357.5 527.483 354.25V340.75C527.483 337.5 529.983 335 533.233 335H598.233C601.483 335 603.983 337.5 603.983 340.75V354.25C603.983 357.5 606.483 360 609.733 360H623.733C626.983 360 629.483 362.5 629.483 365.75V429.25C629.483 432.5 626.983 435 623.733 435H609.733C606.483 435 603.983 437.5 603.983 440.75V454.25C603.983 457.5 601.483 460 598.233 460H533.233ZM527.483 429.25C527.483 432.5 529.983 435 533.233 435H598.233C601.483 435 603.983 432.5 603.983 429.25V365.75C603.983 362.5 601.483 360 598.233 360H533.233C529.983 360 527.483 362.5 527.483 365.75V429.25Z" fill="url(#paint0_radial_275_544)"/>
<defs>
<radialGradient id="paint0_radial_275_544" cx="0" cy="0" r="1" gradientUnits="userSpaceOnUse" gradientTransform="translate(524.483 191.643) rotate(148.632) scale(957.118 1808.08)">
<stop stop-color="#A7A1B3"/>
<stop offset="1" stop-color="#666680"/>
</radialGradient>
</defs>
</svg>
